<svg xmlns="http://www.w3.org/2000/svg" viewBox="0 0 1200 800" role="img" aria-labelledby="t d"><title id="t">AquaSolus EcoPure water care</title><desc id="d">Abstract water filtration artwork for AquaSolus</desc><defs><linearGradient id="bg" x1="0" y1="0" x2="1" y2="1"><stop offset="0" stop-color="#073c59"/><stop offset="1" stop-color="#4fc3d7"/></linearGradient></defs><rect width="1200" height="800" fill="url(#bg)"/><g fill="none" stroke="#dffaff" stroke-width="10" opacity=".9"><path d="M610 130C490 305 400 400 400 520c0 120 95 215 210 215s210-95 210-215c0-120-90-215-210-390z"/><path d="M610 245c-70 110-118 170-118 248 0 68 53 123 118 123s118-55 118-123c0-78-48-138-118-248z" opacity=".55"/></g><g fill="#fff"><circle cx="870" cy="235" r="36" opacity=".25"/><circle cx="940" cy="330" r="24" opacity=".18"/><circle cx="300" cy="250" r="44" opacity=".18"/><circle cx="245" cy="390" r="22" opacity=".22"/></g><text x="80" y="105" font-family="Arial, Helvetica, sans-serif" font-size="40" font-weight="700" fill="#ffffff">AquaSolus</text><text x="80" y="155" font-family="Arial, Helvetica, sans-serif" font-size="24" fill="#eafaff">EcoPure water care</text><text x="80" y="715" font-family="Arial, Helvetica, sans-serif" font-size="26" fill="#ffffff" opacity=".9">Clearer water · simpler ownership</text></svg>